<?xml version="1.0" ?><svg viewBox="0 0 50 50" xmlns="http://www.w3.org/2000/svg"><g id="Solid"><path d="M48,11v4a2.00229,2.00229,0,0,1-2,2H31.1687a14.41249,14.41249,0,0,0-7.11694-3.53516,27.919,27.919,0,0,0-5.05127-.46386c-.333,0-.66675.011-1.00049.02313V11a2.00229,2.00229,0,0,1,2-2H46A2.00229,2.00229,0,0,1,48,11Zm-2,8H32.97949a14.84069,14.84069,0,0,1,2.86475,6.90234A4.98455,4.98455,0,0,1,38,30v4a4.9497,4.9497,0,0,1-.50879,2.19727A5.463,5.463,0,0,1,36,42.72461V45a4.95129,4.95129,0,0,1-1.02557,3H42.125a3.006,3.006,0,0,0,2.99365-2.80664l1.69544-26.27759A3.9983,3.9983,0,0,1,46,19ZM44,3a.99974.99974,0,0,0-1-1H39a.97242.97242,0,0,0-.24268.03027l-16,4A.99972.99972,0,0,0,22,7H44ZM29.90576,36.57617A1,1,0,0,0,29,36H19a1.00013,1.00013,0,0,0-.76807,1.64062l5,6a1.00045,1.00045,0,0,0,1.53614,0l5-6A1.00046,1.00046,0,0,0,29.90576,36.57617ZM33.5,36H31.82141a3.00863,3.00863,0,0,1-.51575,2.91992L29.5722,41H33.5a2.5,2.5,0,0,0,0-5ZM16.69531,38.9209A3.00915,3.00915,0,0,1,16.17871,36H4.5a2.5,2.5,0,0,0,0,5H18.4281ZM27.90552,43l-1.60083,1.9209a3,3,0,0,1-4.60791.001L20.095,43H4v2a3,3,0,0,0,3,3H31a3,3,0,0,0,3-3V43ZM35,30H3a1,1,0,0,0-1,1v2a1,1,0,0,0,1,1H35a1,1,0,0,0,1-1V31A1,1,0,0,0,35,30Zm-1-2H4A13,13,0,0,1,17,15h4A13,13,0,0,1,34,28ZM13,23.5A1.5,1.5,0,1,0,11.5,25,1.50164,1.50164,0,0,0,13,23.5Zm4-3A1.5,1.5,0,1,0,15.5,22,1.50164,1.50164,0,0,0,17,20.5Zm3.5,3A1.5,1.5,0,1,0,19,25,1.50164,1.50164,0,0,0,20.5,23.5Zm3.5-3A1.5,1.5,0,1,0,22.5,22,1.50164,1.50164,0,0,0,24,20.5Zm4,3A1.5,1.5,0,1,0,26.5,25,1.50164,1.50164,0,0,0,28,23.5Z"/></g></svg>